<?xml version="1.0" encoding="UTF-8"?>
<svg id="Layer_1" data-name="Layer 1" xmlns="http://www.w3.org/2000/svg" viewBox="0 0 1920 1080">
  <defs>
    <style>
      .cls-1 {
        fill: red;
      }

      .cls-2 {
        stroke: #000;
        stroke-linecap: round;
        stroke-width: 2px;
      }

      .cls-2, .cls-3 {
        fill: none;
        stroke-linejoin: round;
      }

      .cls-3 {
        stroke: red;
        stroke-width: 4px;
      }
    </style>
  </defs>
  <path class="cls-2" d="m261.57,474.41v10.2m-148.31,68.09v-.82m151.19-68.77v-7.74m162.71,84.99v.82m-314.05,26.55v131.89m149.46,78.07l-149.46-78.07m153.92-85.76l1.59.83m158.68,92.45v-144.09m-146.63,55.48l-1.97,1.03m74.3,127.14l74.88-39.11m0,0v-.97m-75.6,39.7l.72.38m0,0v-.75m-74.88,39.86l74.01-38.66m0,0v-.75m-75.41,38.68l1.4.73m0,0v-.84m-135.11-236.73l21.43-11.2m219.51,11.55l14.5,7.57m-133.87-101.83v.27m0-.27l-.3-.13-.34-.1-.37-.07-.38-.04h-.39l-.38.04-.37.07-.34.1-.16.06m2.89.14l.14-.08m-.14.08v.96m0-.96l-.27-.12-.31-.09-.33-.06-.35-.03h-.36l-.35.03-.33.06-.31.09-.27.12m7.3,326.86l.09.15.14.14.18.09.21.04h.19m-156.1-81.15l-.09-.06-.16-.15-.12-.2-.07-.24-.02-.27m155.54,81.55l.06.2.12.2.16.15.2.1.23.05h.25s.22-.06.22-.06m-156.78-250l-.02-.24-.05-.25-.08-.26-.11-.26-.14-.25-.16-.24-.18-.22-.2-.2m149.4-75.48l-148.31,77.47m147.27-79.57l.22.22.2.24.18.26.15.28.12.28.09.28.05.27.02.26m-148.31,77.47l-.02-.26-.05-.27-.09-.28-.12-.28-.15-.28-.18-.26-.2-.24-.22-.22m.9,169.84l-.25-.16-.2-.18-.13-.19-.07-.2v-.1m.79-166.91l-.23.14-.18.16-.12.17-.03.06m.55-.54l-.14-.08m0,0l-.25.16-.2.18-.13.19-.02.04m314.79,7.91v-.2s.05-.21.05-.21l.06-.22.08-.22.1-.22.12-.21.14-.2.16-.19m-162.78-85.08l-.1.12-.1.13-.09.13-.09.14-.08.14-.07.14-.06.14-.06.14m0,0l-.03.1-.03.1-.02.1-.02.1-.02.1v.09s-.02.09-.02.09v.09m0,0l162.71,84.99m0,0v-.22s.05-.23.05-.23l.07-.24.09-.24.12-.24.14-.23.16-.22.17-.21m-.24,2.38l-.03-.06-.12-.17-.18-.16-.23-.14m0,0l.14-.08m.6.56l-.02-.04-.13-.19-.2-.18-.25-.16m.66,166.03v.1s-.08.2-.08.2l-.13.19-.2.18-.25.16m-315.14-177.24l.05-.12m-52.23-47.15l-.05.12m0,0l52.23,47.15m148.36-77.58l-148.31,77.47m148.31-77.47l-52.23-47.15m0,0l-148.31,77.47m0,0l52.23,47.15m153.03-76.26l162.71,84.99m-113.62-140.25l162.71,84.99m-162.71-84.99l-49.09,55.26m162.71,84.99l49.09-55.26m-49.09,55.26l.07.09m0,0l49.09-55.26m-.07-.09l.07.09m-208.34,131.27v.3m-.14-.23v.15m-156.41-82.47h.22s.2.02.2.02l.16.06m155.83,82.23l-.02-.22-.05-.2-.08-.17-.11-.14-.14-.1-.16-.07-.18-.03h-.2m.95.93l.14-.08m0,0l-.02-.24-.06-.22-.09-.19-.12-.15-.15-.12-.18-.07-.2-.03h-.22m159.58,93.55l-148.6,77.62m-3.17,0l-12.96-6.77m0,0v-163.49m4.01-.57l8.95,4.68m-8.72-4.71l8.87,4.63m152.27-77.68l-.17.03-.16.06m-148.92,78.62v-.19s.05-.17.05-.17l.06-.15.08-.13.1-.11.12-.08.14-.06.16-.03m-.72.24l.06-.09.06-.08.07-.07.08-.06.09-.05.09-.04.1-.03h.1m-.65,166.28v-165.2m0-.69v.69m0-.96v.27m-3.17,165.89v-166.16m3.17,166.16l-.3.13-.34.1-.37.07-.38.04h-.39l-.38-.04-.37-.07-.34-.1-.3-.13m.14-166.23l.27.12.31.09.33.06.35.03h.35l.35-.03.33-.06.31-.09.27-.12m-2.88,0l-.14.08m0,0l.3.13.34.1.37.07.38.04h.39l.38-.04.37-.07.34-.1.3-.13m0,0l-.14-.08m-166.35-86.15l155.51,81.23m-155.51-81.23l-52.23,7.41m-.05.17l155.51,81.23m-155.46-81.4l155.51,81.23m-155.51-81.23l-.05.17m207.74,73.82l.05-.17m-52.23,7.41l52.23-7.41m-52.23,7.41l-.05.17m0,0l52.23-7.41m160.27-72.93l-148.6,77.62m197.69-81.6l-49.09,3.98m-148.6,77.62l49.09-3.98m-49.09,3.98l.07.17m0,0l49.09-3.98m-.07-.17l.07.17m148.6-77.62l-148.6,77.62m148.53-77.79l.07.17m-.07-.17l-148.6,77.62m-102.61-29.65v-19.57m58.88,50.32l-58.88-30.76m66.24,26.91v-11.88m41.76-9.93v-11.88m-107.99-12.79l41.76-21.81m24.48,56.41l-66.24-34.6m107.99,12.79l-41.76,21.81m-24.48-56.41l66.24,34.6m-169.38-40.47v-18.06m61.38,50.12l-61.38-32.06m31.68-34.61l70.56,36.85m-102.23-20.31l31.68-16.55m38.88,53.4l-70.56-36.85m102.23,20.31l-31.68,16.55m0,4.1v-4.1m31.68-12.45v-4.1m-58.71-46.88l-12.64,6.6m61.92,32.34l10.08-5.26m-10.08,5.26v3.01m-61.92-35.35l61.92,32.34m-61.92-32.34v3.84m188.63,27l-40.64-21.23m-75.99,17.47l-10.08,5.26m76.19,45.96l50.52-26.39m0-21.07v21.07m-64.8,12.77l64.8-33.85m-64.8,33.85v6.16m-61.92-38.5l61.92,32.34m-61.92-32.34v3.01m-49.28-39.28l80.64,42.12m-80.64-45.13v3.01m80.64,42.12l57.6-30.08m0-3.01v3.01m-57.6,27.07v3.01m-23.04-75.21l-57.6,30.08m0,0l80.64,42.12m0,0l57.6-30.08m0,0l-80.64-42.12m-151.99,238.02l155.51,81.23m-156.63-214.39v131.4m315.5,7.52v-143.61m-159.66,50.98l-155.51-81.23m314.83,8.48l-148.6,77.62"/>
  <path class="cls-2" d="m664.64,542.4v3.01m60.33-67.25v7.94m-67.72,22.24l-80.6,42.1m139.02-72.62l-9.46,4.94m-129.56,68.49v-.82m151.19-65.84v-7.94m92.3,45.48l70.41,36.78m-160.1-83.62l7.6,3.97m152.49,79.65v.82m-235.84-52.72l-79.11,41.32m137.53-71.84l-9.46,4.94m118.63,39.57l69.03,36.06m-158.72-82.91l7.6,3.97m-163.72,108.15v131.89m149.46,78.07l-149.46-78.07m153.92-85.76l1.59.83m158.68,92.45v-144.09m-146.63,55.48l-1.97,1.03m73.58,126.77l.72.38m0,0l74.88-39.11m-74.88,39.11v-.75m74.88-38.36v-.97m-151.15,78.46l1.4.73m0,0v-.84m0,.84l74.01-38.66m0,0v-.75m-156.66-225.56v9.03m5.76-6.02l-5.76-3.01m5.76,6.02l.35-.21.3-.23.24-.25.17-.26.1-.27.03-.28-.03-.28-.1-.27-.17-.26-.24-.25-.3-.23-.35-.21m-8.64,7.52l8.64-4.51m-14.4,4.51l.4.18.44.15.48.12.5.09.52.05.53.02.53-.02.52-.05.5-.09.48-.12.44-.15.4-.18m-11.52-3.01l5.76,3.01m-43.82,16.87l38.06-19.88m146.19-9.38l71.19,37.18m-202.98-35.33l28.92-15.1m44.48,275.54l.09.15.14.14.18.09.21.04h.19m-156.1-81.15l-.09-.06-.16-.15-.12-.2-.07-.24-.02-.27m155.54,81.55l.06.2.12.2.16.15.2.1.23.05h.25s.22-.06.22-.06m-156.78-250l-.02-.24-.05-.25-.08-.26-.11-.26-.14-.25-.16-.24-.18-.22-.2-.2m1.09,1.98l-.02-.26-.05-.27-.09-.28-.12-.28-.15-.28-.18-.26-.2-.24-.22-.22m.9,169.84l-.25-.16-.2-.18-.13-.19-.07-.2v-.1m.79-166.91l-.23.14-.18.16-.12.17-.03.06m.55-.54l-.14-.08m0,0l-.25.16-.2.18-.13.19-.02.04m314.79,7.91v-.2s.05-.21.05-.21l.06-.22.08-.22.1-.22.12-.21.14-.2.16-.19m-.86,1.75v-.22s.05-.23.05-.23l.07-.24.09-.24.12-.24.14-.23.16-.22.17-.21m-.24,2.38l-.03-.06-.12-.17-.18-.16-.23-.14m0,0l.14-.08m.6.56l-.02-.04-.13-.19-.2-.18-.25-.16m.66,166.03v.1s-.08.2-.08.2l-.13.19-.2.18-.25.16m-315.14-177.24l.05-.12m-52.23-47.15l-.05.12m0,0l52.23,47.15m83.17-117.96l-135.35,70.7m0,0l52.23,47.15m315.74,8.73l.07.09m0,0l49.09-55.26m-.07-.09l.07.09m-49.16,55.17l49.09-55.26m-162.71-84.99l162.71,84.99m-162.71-84.99l-2.83,3.18m-42.74,213.18v.3m-.14-.23v.15m-156.41-82.47h.22s.2.02.2.02l.16.06m155.83,82.23l-.02-.22-.05-.2-.08-.17-.11-.14-.14-.1-.16-.07-.18-.03h-.2m.95.93l.14-.08m0,0l-.02-.24-.06-.22-.09-.19-.12-.15-.15-.12-.18-.07-.2-.03h-.22m159.58,93.55l-148.6,77.62m-3.17,0l-12.96-6.77m0,0v-163.49m4.01-.57l8.95,4.68m-8.72-4.71l8.87,4.63m152.27-77.68l-.17.03-.16.06m-148.92,78.62v-.19s.05-.17.05-.17l.06-.15.08-.13.1-.11.12-.08.14-.06.16-.03m-.72.24l.06-.09.06-.08.07-.07.08-.06.09-.05.09-.04.1-.02h.1m-.65,166.28v-165.2m0-.69v.69m0-.96v.27m-3.17,165.89v-166.16m3.17,166.16l-.3.13-.34.1-.37.07-.38.04h-.39l-.38-.04-.37-.07-.34-.1-.3-.13m.14-166.23l.27.12.31.09.33.06.35.03h.35l.35-.03.33-.06.31-.09.27-.12m-2.88,0l-.14.08m0,0l.3.13.34.1.37.07.38.04h.39l.38-.04.37-.07.34-.1.3-.13m0,0l-.14-.08m-166.35-86.15l155.51,81.23m-155.51-81.23l-52.23,7.41m-.05.17l155.51,81.23m-155.46-81.4l155.51,81.23m-155.51-81.23l-.05.17m207.74,73.82l.05-.17m-52.23,7.41l52.23-7.41m-52.23,7.41l-.05.17m0,0l52.23-7.41m160.27-72.93l-148.6,77.62m197.69-81.6l-49.09,3.98m-148.6,77.62l49.09-3.98m-49.09,3.98l.07.17m0,0l49.09-3.98m-.07-.17l.07.17m148.6-77.62l-148.6,77.62m148.53-77.79l.07.17m-.07-.17l-148.6,77.62m-102.61-90.3l41.76-21.81m0,0l66.24,34.6m0,0l-41.76,21.81m41.76-2.25l-41.76,21.81m41.76-21.81v-19.57m-41.76,21.81l-66.24-34.6m0,19.57v-19.57m66.24,54.16l-66.24-34.6m66.24,34.6v-19.57m-95.94-118.96l70.56,36.85m-102.23-20.31l31.68-16.55m70.56,36.85l-31.68,16.55m31.68,1.51l-31.68,16.55m31.68-16.55v-18.06m-31.68,16.55l-70.56-36.85m0,18.06v-18.06m70.56,54.91l-70.56-36.85m70.56,36.85v-18.06m-39.67-63.7l61.92,32.34m-61.92-53.41v21.07m126.71-22.57l-61.92-32.34m0,0l-64.8,33.85m0,0l61.92,32.34m0,21.07l64.8-33.85m0-21.07v21.07m-64.8,12.77l64.8-33.85m-64.8,33.85v21.07m61.92,61.36l64.8-33.85m0-21.07v21.07m-118.3,5.9l53.51,27.95m0-21.07v21.07m-61.92-53.41v1.94m126.71-3.44l-61.92-32.34m0,0l-64.8,33.85m0,0l61.92,32.34m0,0l64.8-33.85m-175.99-123.75l80.64,42.12m-80.64-45.13v3.01m80.64,42.12l57.6-30.08m0-3.01v3.01m-57.6,27.07v3.01m-23.04-75.21l-57.6,30.08m0,0l80.64,42.12m0,0l57.6-30.08m0,0l-80.64-42.12m-151.99,389.09l155.51,81.23m-156.63-214.39v131.4m315.5,7.52v-143.61m-159.66,50.98l-155.51-81.23m314.83,8.48l-148.6,77.62"/>
  <path class="cls-2" d="m1264.3,538.57v3.17m-57.25-42.56v-32.92m141.69,82.38v-.58m-144.44-81.8v32.45m-155.02,57.05l155.02-89.49m144.58,86.1v-3.65m0,175.04v-139.23m-299.86,8.08v138.92m287.37-.87l-142.93,82.51m-4.53-175.91l1.51.87m3.02,0l1.51-.87m-146.77,94.91l71.4,41.22m-71.4-41.22v-11.1m71.4,52.31l.82-.48m-.82.48v-1.11m.82,1.59v-1.11m0,1.11l70.57,40.74m-142.79-93.53l.2.12m142.59,93.42v-1.2m0,1.2l1.1-.63m77.71-278.55v9.51m-221.4,55.12l-.2-.11m0-7.8v7.8m235.33-56.59l36.3,20.96m-41.8-17.79l5.49-3.17m-10.98,3.17l.35.18.39.15.42.13.44.1.46.06.47.03h.47l.47-.03.46-.06.44-.1.42-.13.39-.15.35-.18m-13.73-4.76l8.24,4.76m-8.24-7.93l-.31.2-.27.22-.22.24-.17.25-.11.26-.06.27v.27l.06.27.11.26.17.25.22.24.27.22.31.2m5.49-6.34l-5.49,3.17m-58.9-40.34l64.39,37.17m-192.41,36.57l127.66-73.69m-156.85,222.77v-121.13m.2,121.25l-.2-.12m.2-121.02l-.2-.11m158.86-133.81l-.15-.07-.32-.11-.35-.07-.37-.04h-.37l-.37.04-.35.07-.32.11-.15.07m2.75.15l-.26-.13-.29-.1-.32-.07-.33-.03h-.34l-.33.03-.32.07-.29.1-.26.13m144.76,80.83h0s.1-.24.1-.24l.12-.22.14-.21.15-.2m-142.52-79.95l141.69,81.8m.22-1.04l.03-.07.07-.15.08-.15.08-.14.09-.14.09-.13.1-.13m-141.69-81.8l-.16.22-.15.24-.13.25-.11.25-.09.26-.06.25-.04.25v.24m141.68,80.79v1.01m0,.58l.22-.15.17-.17.12-.18.06-.19v-.2l-.06-.19-.12-.18-.17-.17-.22-.15m.14-.08l-.14.08m.14,1.66l.24-.16.19-.19.13-.2.06-.21v-.21l-.06-.21-.13-.2-.19-.19-.24-.16m.63,175.91v.11s-.07.21-.07.21l-.13.2-.19.19-.24.16m-156.93,90.28h0m.14-.09l.1.04.23.06h.22s.2-.04.2-.04l.17-.1.14-.15.1-.19.06-.23v-.1m-1.35.79l.26.12.25.07h.24s.22-.04.22-.04l.19-.11.15-.16.11-.21.07-.25.02-.29m148.25-85.27l-.06.21-.11.21-.15.16-.09.06m-292.97-174.56l.15.2.13.21.12.22.1.23h0m-.44-.97l.1.13.09.13.09.14.08.14.08.15.07.15.03.07m155.37-88.53v-.24s-.05-.25-.05-.25l-.06-.25-.09-.26-.11-.25-.13-.25-.15-.24-.16-.22m132.84,266.49v-139.08m.14,139.15l-.14-.08m12.49-7.05l-12.36,7.13m0,0v-139.23m7.39-40.07l4.97-2.87m-.14-.08l.14.08m-5.18,2.83l5.04-2.91m-299.59,6.18v.86m0-.86l-.22.15-.17.17-.12.18-.03.06m.53-.57l-.14-.08m0,176.78l-.24-.16-.19-.19-.13-.2-.06-.21v-.07m.62-175.95l-.24.16-.19.19-.13.2-.02.04m159.36-91.02l141.69,81.8m-94.89-140.03l141.69,81.8m-141.69-81.8l-46.81,58.23m141.69,81.8l46.81-58.23m-46.81,58.23l.07.1m0,0l46.81-58.23m-.07-.1l.07.1m-394.78,7.67l-.07.1m0,0l46.81,58.23m.07-.1l-.07.1m.07-.1l155.15-89.57m0,0l-46.81-58.23m-155.15,89.57l155.15-89.57m-155.15,89.57l46.81,58.23m142.04,259.28l-141.42-81.64m141.42,81.64v-175.04m3.02,175.04l-.29.14-.32.11-.35.07-.37.04h-.37l-.37-.04-.35-.07-.32-.11-.29-.14m3.02-175.04v175.04m-2.88-175.12l.26.13.29.1.32.07.33.03h.34l.33-.03.32-.07.29-.1.26-.13m-2.88.08l.29.14.32.11.35.07.37.04h.37l.37-.04.35-.07.32-.11.29-.14m-145.3-82.78h.21s.19.02.19.02l.15.06m293.33-3.96l.15-.06.19-.03h.21m-148.24,85.79h-.19s-.18.02-.18.02l-.16.07-.13.11-.11.15-.08.18-.05.21-.02.23m.86-1.14h-.21s-.19.02-.19.02l-.17.08-.15.12-.12.16-.09.2-.05.23-.02.26m0,0l.14.08m-3.02,0l-.02-.23-.05-.21-.08-.18-.11-.15-.13-.11-.16-.07-.18-.03h-.19m1.04.9l-.14.08m.14-.08l-.02-.26-.05-.23-.09-.2-.12-.16-.15-.12-.17-.08-.19-.03h-.21m-141.42-81.63l141.42,81.64m-141.42-81.64l-49.8,7.82m195.95,73.82l148.28-85.6m49.8,7.82l-49.8-7.82m-344.28,11.96l141.42,81.64m-141.37-81.82l141.42,81.64m-141.42-81.64l-.05.18m191.22,73.82l.05-.18m-49.8,7.82l49.8-7.82m-49.8,7.82l-.05.18m0,0l49.8-7.82m4.83,0l-.05-.18m.05.18l49.8,7.82m-49.85-7.99l49.8,7.82m.05.18l148.28-85.6m-.05-.18l.05.18m-148.33,85.43l148.28-85.6m-148.28,85.6l.05.18m105.34-92.51v-4.62m0,175.04v-138.72m-156.49,229.98l148.28-85.6m-151.17-91.47l-141.42-81.64m293.33-3.96l-148.28,85.6"/>
  <path class="cls-2" d="m1613.31,401.69l-.05,1.74m100.6,70.37l-.08,2.69m-14.83,115.76h0s0-.02,0-.02m2.14.06v.02m-.51.17l.13-.04.14-.07.09-.08.04-.09-.02-.09-.07-.09-.12-.08m0,0l-.16-.07-.2-.05-.22-.03h-.23s-.22,0-.22,0l-.21.03-.18.05-.14.07-.09.08-.04.09.02.09.07.09.12.08.16.07h0m-23.97-14.47v-.02m2.13.06h0s0,.02,0,.02m-.51.17l.11-.03.15-.07.1-.08.05-.09v-.09s-.07-.09-.07-.09l-.11-.08m0,0l-.16-.07-.19-.05-.22-.03h-.23s-.23,0-.23,0l-.21.03-.18.05-.15.07-.1.08-.05.09v.09s.07.09.07.09l.11.08.16.07h.04m21.97,33.4l.17.41m-18.99-98.29l-1.42,50.13m-164.27-9.57v-.37m166.97,10.16l1.39-48.94m122.76,74.67h0m-122.76-74.67l118.52,72.1m4.24,2.58l-.02.87m-121.8-77.46l120.5,73.3m-177.01,238.26v.04m-114.15-245.35l-4.89,172.45m112.67,68.54l-112.67-68.54m120.1-127.25l2.82,1.71m85.7,181.72l83.65-20.29m0,0l.05-1.62m-84.63,21.33l.94.57m0,0l.04-1.32m-83.68,21.61l82.68-20.06m0,0l.04-1.32m-88.8,17.67l6.08,3.7m0,0l.04-1.34m-23.22-427.95l-.16,5.58m119.74,79.86l-.29-.15-.33-.14-.37-.12-.4-.11-.43-.09-.45-.07-.46-.05-.47-.02h-.47s-.46.02-.46.02l-.45.04-.43.06-.4.08m0,0l-6.19,1.5m6.55-13.99l-.35,12.49m85.34-15.15l-75.6,18.34m75.96-30.82l-.35,12.49m-75.6,18.34l-4.35-2.64m4.7-9.84l-.35,12.49m-3.99-15.13l-.35,12.49m-11.74,6.55l-75.6,18.34m75.96-30.82l-.35,12.49m-103.49-89.34l-4.35-2.64m3.3,4.75l.37-.1.33-.12.29-.14.25-.15.2-.16.14-.17.09-.18.03-.18-.02-.19-.08-.18-.13-.18-.19-.17-.24-.17m-10.7,4.44l9.65-2.34m-15.04,1.8l.29.15.33.14.37.12.4.11.43.09.45.07.46.05.47.02h.47s.46-.02.46-.02l.45-.04.43-.06.4-.08m-9.74-3.18l4.35,2.64m-79.95,15.69l75.6-18.34m124.28,75.6l-75.6,18.34m71.26-20.98l4.35,2.64m-3.3-4.75l-.37.1-.33.12-.29.14-.25.15-.2.16-.14.17-.09.18-.03.18.02.19.08.18.13.18.19.17.24.16m10.7-4.44l-9.65,2.34m15.04-1.8l-.29-.15-.33-.14-.37-.12-.4-.11-.43-.09-.45-.07-.46-.05-.47-.02h-.47s-.46.02-.46.02l-.45.04-.43.06-.4.08m9.74,3.18l-4.35-2.64m79.95-15.69l-75.6,18.34m-48.68-93.94l124.28,75.6m-199.88-57.26l75.6-18.34m-43.37,128.66l-124.28-75.6m124.63,63.11l-.35,12.49m.35-12.49l-124.28-75.6m0,0l-.35,12.49m198.31,151.44l-.41,14.44m-35.04-36l35.45,21.57m-51.94-17.91l15.6-3.78m20.25,25.59l16.09-3.9m-16.09,3.9l-.03.98m-35.82-22.79l35.85,21.81m-35.85-21.81l10.86,6.61m-10.86-6.61l-91.78,22.26m102.61-14.67l.03-.98m0,0l-91.78,22.26m117.82-3.83v-.39m-.56.32v-.3m0,0l.56-.02m.36.18l-.36-.18m.36.18l-.2.2m0,0l-.56.02m-.36-.18l.36.18m-.15-.38l-.2.2m-.51.05h0m-22.18-14.16v-.39m-.56.33v-.32m0,0h.56m.34.17l-.34-.19m.34.19l-.22.2m0,0h-.56m-.34-.17l.34.19m-.12-.39l-.22.2m-.51.06h0s0-.02,0-.02m-35.5,51.36l-3.05.74m-.12,0l3.56-.86m35.36-11.7l-43.19,10.48m-.63-.39l66.03-16.02m0,0l.45-.1.48-.08.5-.06.51-.03h.52s.51,0,.51,0m23.61-5.73l-50.51-30.72m0,0l-90.6,21.98m94.17-19.33l-.17-.08-.21-.07-.24-.05-.26-.03h-.26s-.26,0-.26,0l-.24.03-.22.05-.18.07-.14.08-.09.1-.04.1.02.1.07.1.12.09.17.08.21.07.24.05.26.03h.26s.26,0,.26,0l.24-.03.22-.05.18-.07.14-.09.09-.1.04-.1-.02-.1-.07-.1-.12-.09m45.98,28.31h-.18s-.26,0-.26,0l-.24.03-.22.05-.18.07-.14.09-.07.07m-21.22-14.35l-.17-.08-.21-.07-.24-.05-.26-.03h-.26s-.26,0-.26,0l-.24.03-.22.05-.18.07-.14.08-.09.1-.04.1.02.1.07.1.12.09.17.08.21.07.24.05.26.03h.26s.26,0,.26,0l.24-.03.22-.05.18-.07.14-.08.09-.1.04-.1-.02-.1-.07-.1-.12-.09m-17.29-4.37l.11.07.14.11.09.12.04.12v.12s-.08.12-.08.12l-.12.11-.17.1-.21.09-.25.07-.28.05-.3.03h-.31s-.32,0-.32,0l-.31-.03-.3-.05m0,0l-.28-.07-.25-.08-.21-.1-.17-.11-.12-.12-.07-.12v-.12s.03-.12.03-.12l.09-.12.14-.11.14-.07m1.14-73.4v.32m0-.32l-.23-.12-.28-.1-.32-.08-.35-.06-.37-.04h-.37s-.37,0-.37,0l-.35.04-.22.04m2.69.36l.16-.04m-.16.04l-.03,1.13m.03-1.13l-.21-.11-.26-.09-.29-.08-.32-.06-.33-.03h-.34s-.33,0-.33,0l-.32.04-.3.06m-165.79,40.12v-.28s-.04-.29-.04-.29l-.05-.29-.08-.29-.1-.27-.12-.26-.13-.23-.15-.2m166.46-38.01l-165.68,40.19m164.95-42.51l.16.22.15.26.13.28.11.3.09.31.06.32.03.32v.31m-165.68,40.19v-.31s-.04-.32-.04-.32l-.06-.32-.09-.31-.11-.3-.13-.28-.15-.26-.16-.22m-5.54,200.32l-.18-.13-.12-.14-.06-.15v-.07m6.63-197.51l-.26.08-.14.05m.4-.13l-.11-.07m0,0l-.29.09-.11.04m-.26-2.24l.04-.14m-38.74-47.52l-.04.14m0,0l38.74,47.52m165.73-40.33l-165.68,40.19m165.68-40.19l-7.5-9.2m-83.65-25.61l-113.28,27.48m0,0l38.74,47.52m170.01-38.38l-.12.11-.11.12-.11.12-.1.13-.09.14-.08.14-.07.15-.07.15m0,0l-.04.11-.04.11-.03.11-.03.11-.02.11-.02.11v.11s-.02.11-.02.11m122.92,74.64v-.05m-.57,1.11l.15-.05.22-.1.17-.11.12-.12.06-.13v-.13s-.05-.13-.05-.13l-.11-.13-.16-.12m0,0l.16-.04m-.57,1.16l.29-.09.24-.11.19-.12.13-.13.07-.14v-.15s-.05-.15-.05-.15l-.12-.14-.18-.13m-5.19,196.27v.08s-.08.14-.08.14l-.13.13-.19.12-.24.11-.29.09m-172.37,38.12h.05m136.96-345.01l98.09,59.67m-156.37-45.53l-22.22,19.27m125.83,72.01l52.76-45.74m-52.44,45.66l52.51-45.53m-.08-.13l.08.13m-353.56,213.69l-.07-.05-.21-.19-.17-.24-.12-.28-.07-.31-.02-.33m117.53,71.77l.04.15.11.25.15.22.19.17.22.12.25.07h.27s.12,0,.12,0m-1.55-1.1v.05s.08.31.08.31l.12.28.17.24.21.19.25.13.28.08.3.02.31-.04m4.03-198.48v.27m-.16-.23v.13m-118.28-73.11l.24.06.21.1m117.82,72.8v-.27s-.06-.25-.06-.25l-.08-.23-.12-.2-.15-.17-.18-.14-.2-.1-.22-.06m1.01,1.42l.16-.04m0,0v-.29s-.07-.28-.07-.28l-.09-.25-.13-.22-.16-.19-.2-.15-.22-.11-.24-.06m-2.17-.16l8.39,5.11m-5.75,196.95l-9.78-5.95m6.82-196.16l8.54,5.2m-15.36,190.96l5.57-196.36m173.18,162.34l-166.01,40.27m166.01-40.27l5.56-195.78m0,0l-166.01,40.27m166.59-41.48l-.12.06-.11.09-.1.12-.08.15-.07.17-.05.19-.03.21-.02.23m-166.01,40.27l.02-.23.03-.21.05-.19.07-.17.08-.15.1-.12.11-.09.12-.06m-.56.4l.05-.11.05-.1.06-.09.06-.08.07-.07.07-.06.08-.05.08-.03m-3.31-.07l.21.11.26.09.29.08.32.06.33.03h.34s.33,0,.33,0l.32-.04.3-.06m-2.7-.27l-.16.04m2.96.3l-.11-.07m-5.48,196.98l5.55-195.78m.02-.82l-.02.82m.03-1.13v.32m-2.96-.61l.23.12.28.1.32.08.35.06.37.04h.37s.37,0,.37,0l.35-.04.33-.06m-8.55,196.61l5.59-196.91m-2.62,197.21l-.33.06-.35.04h-.37s-.37,0-.37,0l-.37-.04-.35-.06-.32-.08-.28-.1-.23-.12m-117.8-273.26l117.33,71.37m-117.33-71.37l-57.68-9.39m-.06.18l117.33,71.37m-117.27-71.55l117.33,71.37m-117.33-71.37l-.06.18m175,80.76l.06-.18m-57.68-9.39l57.68,9.39m-57.68-9.39l-.06.18m0,0l57.68,9.39m175.65-35.25l-166.01,40.27m204.04-52.84l-38.03,12.58m-166.06,40.08l38.03-12.58m-38.03,12.58l.05.19m0,0l38.03-12.58m-.05-.19l.05.19m166.01-40.27l-166.01,40.27m165.96-40.45l.05.19m-.05-.19l-166.01,40.27m24.38-24.86v-.02m-2.13-.06v.02m1.86-.31l-.08-.04-.18-.06-.21-.04-.22-.02h-.21m0,0h-.01s-.22.02-.22.02l-.2.03-.18.05-.15.07-.12.1-.06.1v.07m2.12.07l-.02-.11-.06-.09-.1-.09-.1-.06m-23.19-13.91v-.02m-2.13-.06v.02m1.89-.29l-.08-.04-.18-.06-.2-.05-.22-.03h-.21m0,0h-.02s-.22.01-.22.01l-.21.03-.18.05-.16.07-.12.09-.07.09-.02.09m2.13.08v-.09s-.06-.1-.06-.1l-.09-.09-.09-.06m5.52,9.39l-.26-.04-.26-.02h-.26s-.26.02-.26.02l-.26.04-.25.06-.25.08-.24.1m2.93.08l-.11-.05-.11-.05-.11-.05-.11-.04-.11-.04-.11-.03-.12-.03-.12-.03m-171.18-7.87l-4.89,172.18m292.71,34.61l5.56-195.78m-297.24,163.06l117.33,71.37m4.43-199.74l-117.33-71.37"/>
  <g>
    <line class="cls-3" x1="359.81" y1="515.55" x2="452.49" y2="339.29"/>
    <polygon class="cls-1" points="373.79 513.94 343.32 546.91 353.22 503.12 373.79 513.94"/>
  </g>
  <path d="m477.65,351.07v-34.76h-10.3v-6.82c8.63,0,11.51-2.88,12.12-8.71h8.03v50.28h-9.84Z"/>
  <g>
    <line class="cls-3" x1="1150.24" y1="523.01" x2="1113" y2="327.39"/>
    <polygon class="cls-1" points="1160.18 513.05 1156.87 557.83 1137.34 517.4 1160.18 513.05"/>
  </g>
  <path d="m1051.05,350.86c.08-9.31,2.27-15.75,15.15-24.99,7.19-5.15,9.31-7.72,9.31-11.97,0-5.07-3.1-6.59-6.97-6.59-4.47,0-7.35,2.2-7.35,8.94h-9.47c0-10.83,6.06-17.34,16.36-17.34s17.04,4.77,17.04,14.69c0,7.65-3.79,12.04-14.54,19.69-3.86,2.8-6.74,6.44-6.97,9.01h21.66v8.56h-34.23Z"/>
  <g>
    <line class="cls-3" x1="1633.05" y1="570.44" x2="1633.11" y2="618.91"/>
    <polygon class="cls-1" points="1621.44 578.38 1633 535 1644.68 578.35 1621.44 578.38"/>
  </g>
</svg>